<svg height="512" viewBox="0 0 64 64" width="512" xmlns="http://www.w3.org/2000/svg"><path d="m31.99 9.05-.87-.87c-2.34-2.34-5.41-4.52-8.48-4.52a12.005 12.005 0 0 0 -8.49 20.49l17.85 16.85v-31.96z" fill="#e50000"/><path d="m49.81 7.14a11.947 11.947 0 0 0 -8.46-3.49c-3.08 0-6.16 2.18-8.51 4.54l-.84.85v31.96l17.86-16.89a11.993 11.993 0 0 0 -.05-16.97z" fill="#f00"/><path d="m58.6 26.8a3.105 3.105 0 0 0 -3.552 2.313l-2.738 10.207-.014.015a2.938 2.938 0 0 0 -.568-.82 3 3 0 0 0 -3.728-.415l-9.325 5.957a10 10 0 0 0 -4.675 8.466v9.477h13v-4.515a6 6 0 0 1 1.757-4.242l7.485-7.485a3.989 3.989 0 0 0 1.035-1.794l3.6-13.454a3 3 0 0 0 -2.277-3.71z" fill="#ffbcab"/><path d="m25.326 44.059-9.315-5.95a3 3 0 0 0 -3.739.406 2.938 2.938 0 0 0 -.568.82l-.014-.015-2.738-10.205a3.105 3.105 0 0 0 -3.552-2.315 3 3 0 0 0 -2.28 3.71l3.6 13.454a3.989 3.989 0 0 0 1.035 1.794l7.485 7.485a6 6 0 0 1 1.76 4.242v4.515h13v-9.477a10 10 0 0 0 -4.674-8.464z" fill="#ffbcab"/><path d="m30 15v4h-4v4h4v4h2v-12z" fill="#d1d3d4"/><path d="m34 19v-4h-2v12h2v-4h4v-4z" fill="#f1f2f2"/><path d="m59.677 26.117a4.039 4.039 0 0 0 -5.595 2.739l-2.269 8.454a4.014 4.014 0 0 0 -4.374-.037c-.175.114-9.3 5.938-9.3 5.939a10.94 10.94 0 0 0 -5.139 9.31v9.478h2v-9.478a8.955 8.955 0 0 1 4.213-7.622s9.137-5.835 9.311-5.948a2.011 2.011 0 0 1 2.5.269 2 2 0 0 1 .054 2.772l-5.832 4.1a1 1 0 0 0 -.246 1.392 1 1 0 0 0 1.393.243l5.91-4.153.132-.112a3.945 3.945 0 0 0 .921-4.187l2.658-9.9a2.106 2.106 0 0 1 2.379-1.595 2.007 2.007 0 0 1 1.587 1.95 1.963 1.963 0 0 1 -.066.521l-3.6 13.456a3 3 0 0 1 -.776 1.344l-7.488 7.484a7 7 0 0 0 -2.05 4.949v4.515h2v-4.514a5 5 0 0 1 1.465-3.536l7.484-7.485a5 5 0 0 0 1.294-2.242l3.6-13.452a4.06 4.06 0 0 0 .117-1.433 4.014 4.014 0 0 0 -2.283-3.221z"/><path d="m25.864 43.216c-2.791-1.787-9.309-5.959-9.56-6.095a4.017 4.017 0 0 0 -4.117.191l-2.27-8.456a4.019 4.019 0 0 0 -6.48-2.175 3.7 3.7 0 0 0 -1.189 1.667 4.205 4.205 0 0 0 -.094 2.421l3.6 13.454a5 5 0 0 0 1.294 2.243l7.485 7.485a5 5 0 0 1 1.467 3.534v4.515h2v-4.514a7 7 0 0 0 -2.051-4.95l-7.484-7.484a3 3 0 0 1 -.776-1.344l-3.6-13.459a1.979 1.979 0 0 1 -.065-.519 2.006 2.006 0 0 1 1.588-1.95 2.113 2.113 0 0 1 2.377 1.595l2.659 9.9a3.943 3.943 0 0 0 .921 4.186l6.042 4.263a1 1 0 0 0 1.389-.239 1 1 0 0 0 -.243-1.393l-5.832-4.1a2 2 0 0 1 .053-2.772 2.005 2.005 0 0 1 2.352-.354c.315.186 5.827 3.71 9.462 6.037a8.952 8.952 0 0 1 4.208 7.619v9.478h2v-9.478a10.938 10.938 0 0 0 -5.136-9.306z"/><path d="m50.516 6.432a12.906 12.906 0 0 0 -9.166-3.782c-3.639 0-7.022 2.629-9.221 4.837l-.144.144-.158-.158c-2.2-2.2-5.571-4.813-9.187-4.813a13 13 0 0 0 -9.176 22.217l18.536 17.496 18.569-17.558a12.991 12.991 0 0 0 -.053-18.383zm-1.344 16.953-17.172 16.242-17.143-16.184a11.005 11.005 0 0 1 7.783-18.783c2.931 0 5.845 2.3 7.773 4.228l1.587 1.58 1.549-1.568c2.726-2.738 5.5-4.246 7.8-4.246a11 11 0 0 1 7.822 18.735z"/><path d="m35 28v-4h4v-6h-4v-4h-6v4h-4v6h4v4zm-8-6v-2h4v-4h2v4h4v2h-4v4h-2v-4z"/></svg>