<svg id="Layer_1" enable-background="new 0 0 512 512" height="512" viewBox="0 0 512 512" width="512" xmlns="http://www.w3.org/2000/svg"><g><path d="m447.004 72.07v400.65c0 17.55-14.26 31.78-31.85 31.78h-318.31c-17.59 0-31.84-14.23-31.84-31.78v-400.65c0-17.55 14.25-31.78 31.84-31.78h318.31c17.59 0 31.85 14.23 31.85 31.78z" fill="#4b6675"/><path d="m447.004 72.07v400.65c0 17.55-14.26 31.78-31.85 31.78h-29.97c17.59 0 31.84-14.23 31.84-31.78v-400.65c0-17.55-14.25-31.78-31.84-31.78h29.97c17.59 0 31.85 14.23 31.85 31.78z" fill="#294a59"/><path d="m94.262 70.487h322.477v404.821h-322.477z" fill="#e4f4ff"/><path d="m389.613 70.487h27.125v404.821h-27.125z" fill="#c0eaf7"/><path d="m337.754 40.29v45.2h-163.51v-45.2h51.78v-32.79h59.95v32.79z" fill="#ffe527"/><path d="m337.754 40.29v45.2h-23v-37.69h-51.78v-40.3h23v32.79z" fill="#ffbd29"/><path d="m350.062 150.33v-26.977h-30v26.977h-26.978v30h26.978v26.978h30v-26.978h26.978v-30z" fill="#ff2261"/></g><g><path d="m447 125.218c-4.143 0-7.5 3.358-7.5 7.5v340.002c0 13.388-10.921 24.28-24.345 24.28h-318.31c-13.424 0-24.345-10.892-24.345-24.28v-267.765c0-4.142-3.358-7.5-7.5-7.5s-7.5 3.358-7.5 7.5v267.765c0 21.659 17.65 39.28 39.345 39.28h318.311c21.694 0 39.345-17.621 39.345-39.28v-340.002c-.001-4.142-3.358-7.5-7.501-7.5z"/><path d="m415.155 32.795h-121.683v-25.295c0-4.142-3.357-7.5-7.5-7.5h-59.943c-4.142 0-7.5 3.358-7.5 7.5v25.295h-121.684c-21.695 0-39.345 17.621-39.345 39.28v98.239c0 4.142 3.358 7.5 7.5 7.5s7.5-3.358 7.5-7.5v-98.239c0-13.388 10.921-24.28 24.345-24.28h69.899v15.192h-72.482c-4.142 0-7.5 3.358-7.5 7.5v335.828c0 4.142 3.358 7.5 7.5 7.5s7.5-3.358 7.5-7.5v-328.328h64.982v7.5c0 4.142 3.358 7.5 7.5 7.5h163.513c4.143 0 7.5-3.358 7.5-7.5v-7.5h63.981v389.821h-307.476v-26.361c0-4.142-3.358-7.5-7.5-7.5s-7.5 3.358-7.5 7.5v33.861c0 4.142 3.358 7.5 7.5 7.5h322.477c4.143 0 7.5-3.358 7.5-7.5v-404.821c0-4.142-3.357-7.5-7.5-7.5h-71.481v-15.192h69.898c13.424 0 24.345 10.892 24.345 24.28v25.207c0 4.142 3.357 7.5 7.5 7.5s7.5-3.358 7.5-7.5v-25.207c-.001-21.659-17.651-39.28-39.346-39.28zm-84.898 45.192h-148.513v-30.192h44.284c4.142 0 7.5-3.358 7.5-7.5v-25.295h44.943v25.295c0 4.142 3.357 7.5 7.5 7.5h44.285v30.192z"/><path d="m350.062 115.853h-30c-4.143 0-7.5 3.358-7.5 7.5v19.478h-19.478c-4.143 0-7.5 3.358-7.5 7.5v30c0 4.142 3.357 7.5 7.5 7.5h19.478v19.478c0 4.142 3.357 7.5 7.5 7.5h30c4.143 0 7.5-3.358 7.5-7.5v-19.479h19.479c4.143 0 7.5-3.358 7.5-7.5v-30c0-4.142-3.357-7.5-7.5-7.5h-19.479v-19.478c0-4.142-3.358-7.499-7.5-7.499zm19.478 41.977v15h-19.479c-4.143 0-7.5 3.358-7.5 7.5v19.478h-15v-19.478c0-4.142-3.357-7.5-7.5-7.5h-19.478v-15h19.478c4.143 0 7.5-3.358 7.5-7.5v-19.478h15v19.478c0 4.142 3.357 7.5 7.5 7.5z"/><path d="m134.29 157.83h88.794c4.142 0 7.5-3.358 7.5-7.5s-3.358-7.5-7.5-7.5h-88.794c-4.142 0-7.5 3.358-7.5 7.5s3.358 7.5 7.5 7.5z"/><path d="m134.29 192.257h118.794c4.143 0 7.5-3.358 7.5-7.5s-3.357-7.5-7.5-7.5h-118.794c-4.142 0-7.5 3.358-7.5 7.5s3.358 7.5 7.5 7.5z"/><path d="m134.29 255.257h242.75c4.143 0 7.5-3.358 7.5-7.5s-3.357-7.5-7.5-7.5h-242.75c-4.142 0-7.5 3.358-7.5 7.5s3.358 7.5 7.5 7.5z"/><path d="m134.29 289.795h222.75c4.143 0 7.5-3.358 7.5-7.5s-3.357-7.5-7.5-7.5h-222.75c-4.142 0-7.5 3.358-7.5 7.5 0 4.143 3.358 7.5 7.5 7.5z"/><path d="m377.04 309.968h-42.978c-4.143 0-7.5 3.358-7.5 7.5s3.357 7.5 7.5 7.5h42.978c4.143 0 7.5-3.358 7.5-7.5s-3.357-7.5-7.5-7.5z"/><path d="m134.29 324.968h165.271c4.143 0 7.5-3.358 7.5-7.5s-3.357-7.5-7.5-7.5h-165.271c-4.142 0-7.5 3.358-7.5 7.5s3.358 7.5 7.5 7.5z"/><path d="m124.209 387.261c0 4.142 3.358 7.5 7.5 7.5h42.978c4.142 0 7.5-3.358 7.5-7.5s-3.358-7.5-7.5-7.5h-42.978c-4.142 0-7.5 3.358-7.5 7.5z"/><path d="m381.959 387.261c0-4.142-3.357-7.5-7.5-7.5h-165.271c-4.142 0-7.5 3.358-7.5 7.5s3.358 7.5 7.5 7.5h165.271c4.143 0 7.5-3.358 7.5-7.5z"/><path d="m134.29 359.505h242.75c4.143 0 7.5-3.358 7.5-7.5s-3.357-7.5-7.5-7.5h-242.75c-4.142 0-7.5 3.358-7.5 7.5s3.358 7.5 7.5 7.5z"/><path d="m313.952 441.298h63.088c4.143 0 7.5-3.358 7.5-7.5s-3.357-7.5-7.5-7.5h-63.088c-4.143 0-7.5 3.358-7.5 7.5s3.358 7.5 7.5 7.5z"/><path d="m253.084 426.298c-4.142 0-7.5 3.358-7.5 7.5s3.358 7.5 7.5 7.5h26.494c4.143 0 7.5-3.358 7.5-7.5s-3.357-7.5-7.5-7.5z"/></g></svg>