<?xml version="1.0" encoding="UTF-8" standalone="no"?>
<svg
   xmlns:dc="http://purl.org/dc/elements/1.1/"
   xmlns:cc="http://creativecommons.org/ns#"
   xmlns:rdf="http://www.w3.org/1999/02/22-rdf-syntax-ns#"
   xmlns:svg="http://www.w3.org/2000/svg"
   xmlns="http://www.w3.org/2000/svg"
   xmlns:sodipodi="http://sodipodi.sourceforge.net/DTD/sodipodi-0.dtd"
   xmlns:inkscape="http://www.inkscape.org/namespaces/inkscape"
   id="Layer_1"
   enable-background="new 0 0 512 512"
   height="512"
   viewBox="0 0 512 512"
   width="512"
   version="1.1"
   sodipodi:docname="lupa2.svg"
   inkscape:version="0.92.4 (unknown)">
  <metadata
     id="metadata3899">
    <rdf:RDF>
      <cc:Work
         rdf:about="">
        <dc:format>image/svg+xml</dc:format>
        <dc:type
           rdf:resource="http://purl.org/dc/dcmitype/StillImage" />
        <dc:title></dc:title>
      </cc:Work>
    </rdf:RDF>
  </metadata>
  <defs
     id="defs3897" />
  <sodipodi:namedview
     pagecolor="#ffffff"
     bordercolor="#666666"
     borderopacity="1"
     objecttolerance="10"
     gridtolerance="10"
     guidetolerance="10"
     inkscape:pageopacity="0"
     inkscape:pageshadow="2"
     inkscape:window-width="1366"
     inkscape:window-height="710"
     id="namedview3895"
     showgrid="false"
     inkscape:zoom="1.0234375"
     inkscape:cx="256"
     inkscape:cy="256"
     inkscape:window-x="0"
     inkscape:window-y="27"
     inkscape:window-maximized="1"
     inkscape:current-layer="Layer_1" />
  <g
     id="g3878"
     transform="rotate(-90,256.005,256.00975)">
    <path
       d="M 147.76,403.743 55,496.366 c -10.86,10.87 -28.48,10.87 -39.35,0 -5.43,-5.43 -8.15,-12.56 -8.15,-19.681 0,-3.72 0.74,-7.44 2.23,-10.91 1.35,-3.18 3.33,-6.17 5.92,-8.76 l 93.11,-93.273 32.72,2.25 4.26,0.29 z"
       id="path3834"
       inkscape:connector-curvature="0"
       style="fill:#99f5d2" />
    <path
       d="M 147.76,403.743 55,496.366 c -10.86,10.87 -28.48,10.87 -39.35,0 -5.43,-5.43 -8.15,-12.56 -8.15,-19.681 0,-3.72 0.74,-7.44 2.23,-10.91 10.87,10.87 32.29,13.95 43.16,3.09 l 74.18,-74.302 14.41,-28.571 4.26,0.29 z"
       id="path3836"
       inkscape:connector-curvature="0"
       style="fill:#69d8e4" />
    <path
       d="M 100.99,450.385 79.61,471.756 64.8,456.945 40.26,432.404 l 21.37,-21.37 24.52,24.51 z"
       id="path3838"
       inkscape:connector-curvature="0"
       style="fill:#4b6675" />
    <path
       d="M 100.99,450.385 79.61,471.756 64.8,456.945 86.15,435.544 Z"
       id="path3840"
       inkscape:connector-curvature="0"
       style="fill:#294a59" />
    <path
       d="m 504.51,204.577 c 0,108.843 -88.24,197.076 -197.08,197.076 -4.78,0 -9.52,-0.17 -14.21,-0.51 -102.21,-7.28 -182.86,-92.503 -182.86,-196.566 0,-103.883 80.38,-188.996 182.34,-196.536 4.86,-0.36 9.77,-0.54 14.73,-0.54 108.84,0 197.08,88.233 197.08,197.076 z"
       id="path3842"
       inkscape:connector-curvature="0"
       style="fill:#4b6675" />
    <path
       d="m 504.51,204.577 c 0,108.843 -88.24,197.076 -197.08,197.076 -4.78,0 -9.52,-0.17 -14.21,-0.51 101.93,-7.57 182.27,-92.673 182.27,-196.536 0,-104.033 -80.62,-189.246 -182.79,-196.566 4.86,-0.36 9.77,-0.54 14.73,-0.54 108.84,0 197.08,88.233 197.08,197.076 z"
       id="path3844"
       inkscape:connector-curvature="0"
       style="fill:#294a59" />
    <path
       d="m 475.49,204.577 c 0,92.823 -75.24,168.065 -168.06,168.065 -4.83,0 -9.61,-0.2 -14.33,-0.61 -86.1,-7.26 -153.72,-79.462 -153.72,-167.455 0,-87.863 67.43,-159.975 153.36,-167.415 4.84,-0.43 9.74,-0.64 14.69,-0.64 92.82,0 168.06,75.242 168.06,168.055 z"
       id="path3846"
       inkscape:connector-curvature="0"
       style="fill:#e4f4ff" />
    <path
       d="m 475.49,204.577 c 0,92.823 -75.24,168.065 -168.06,168.065 -4.83,0 -9.61,-0.2 -14.33,-0.61 85.94,-7.44 153.37,-79.553 153.37,-167.425 0,-87.983 -67.62,-160.185 -153.73,-167.445 4.84,-0.43 9.74,-0.64 14.69,-0.64 92.82,0 168.06,75.242 168.06,168.055 z"
       id="path3848"
       inkscape:connector-curvature="0"
       style="fill:#c0eaf7" />
    <g
       id="g3876">
      <path
         d="m 352.233,204.575 c 0,24.741 -20.06,44.801 -44.8,44.801 -3.61,0 -7.12,-0.43 -10.49,-1.24 -19.68,-4.72 -34.31,-22.431 -34.31,-43.561 0,-21.081 14.56,-38.761 34.17,-43.531 3.41,-0.83 6.97,-1.27 10.63,-1.27 24.74,0 44.8,20.061 44.8,44.801 z"
         id="path3850"
         inkscape:connector-curvature="0"
         style="fill:#ff2261" />
      <path
         d="m 352.233,204.575 c 0,24.741 -20.06,44.801 -44.8,44.801 -3.61,0 -7.12,-0.43 -10.49,-1.24 19.62,-4.76 34.18,-22.441 34.18,-43.531 0,-21.141 -14.63,-38.851 -34.32,-43.561 3.41,-0.83 6.97,-1.27 10.63,-1.27 24.74,0 44.8,20.061 44.8,44.801 z"
         id="path3852"
         inkscape:connector-curvature="0"
         style="fill:#b7305d" />
      <path
         d="m 325.683,111.393 c 0,10.08 -8.17,18.251 -18.25,18.251 -3.32,0 -6.44,-0.89 -9.12,-2.45 -5.46,-3.15 -9.13,-9.04 -9.13,-15.8 0,-6.76 3.67,-12.651 9.13,-15.801 2.68,-1.56 5.8,-2.45 9.12,-2.45 10.08,-0.001 18.25,8.169 18.25,18.25 z"
         id="path3854"
         inkscape:connector-curvature="0"
         style="fill:#ff2261" />
      <path
         d="m 325.683,297.788 c 0,10.08 -8.17,18.261 -18.25,18.261 -3.32,0 -6.44,-0.89 -9.12,-2.46 -5.46,-3.14 -9.13,-9.04 -9.13,-15.801 0,-6.761 3.67,-12.65 9.13,-15.801 2.68,-1.56 5.8,-2.45 9.12,-2.45 10.08,0.001 18.25,8.171 18.25,18.251 z"
         id="path3856"
         inkscape:connector-curvature="0"
         style="fill:#ff2261" />
      <g
         id="g3864"
         style="fill:#b7305d">
        <path
           d="m 307.433,93.142 c -3.32,0 -6.44,0.89 -9.12,2.45 5.45,3.15 9.12,9.05 9.12,15.801 v 18.251 c 10.08,0 18.25,-8.17 18.25,-18.251 0,-10.081 -8.17,-18.251 -18.25,-18.251 z"
           id="path3858"
           inkscape:connector-curvature="0" />
        <path
           d="m 307.433,279.538 v 18.251 c 0,6.75 -3.67,12.65 -9.12,15.801 2.68,1.57 5.8,2.46 9.12,2.46 10.08,0 18.25,-8.18 18.25,-18.261 0,-10.081 -8.17,-18.251 -18.25,-18.251 z"
           id="path3860"
           inkscape:connector-curvature="0" />
        <circle
           cx="399.63101"
           cy="204.592"
           r="18.252001"
           id="circle3862" />
      </g>
      <circle
         cx="215.235"
         cy="204.592"
         r="18.252001"
         id="circle3866"
         style="fill:#ff2261" />
      <circle
         cx="373.33401"
         cy="138.689"
         r="18.252001"
         id="circle3868"
         style="fill:#b7305d" />
      <circle
         cx="241.532"
         cy="270.495"
         r="18.252001"
         id="circle3870"
         style="fill:#ff2261" />
      <circle
         cx="235.489"
         cy="132.646"
         r="28.002001"
         id="circle3872"
         style="fill:#ff2261" />
      <circle
         cx="380.233"
         cy="275.582"
         r="28.002001"
         id="circle3874"
         style="fill:#b7305d" />
    </g>
  </g>
  <g
     id="g3892"
     transform="rotate(-90,256,256)">
    <path
       d="m 150.666,265.7 c -3.787,1.678 -5.497,6.108 -3.819,9.895 28.126,63.49 91.16,104.515 160.587,104.515 96.801,0 175.554,-78.751 175.554,-175.549 0,-96.798 -78.753,-175.549 -175.554,-175.549 -96.801,0 -175.555,78.751 -175.555,175.549 0,12.84 1.394,25.651 4.143,38.079 0.896,4.044 4.893,6.6 8.943,5.703 4.044,-0.895 6.598,-4.899 5.703,-8.943 -2.515,-11.366 -3.789,-23.087 -3.789,-34.839 0,-88.527 72.024,-160.549 160.555,-160.549 88.529,0 160.554,72.022 160.554,160.549 0,88.527 -72.024,160.549 -160.554,160.549 -63.497,0 -121.148,-37.521 -146.872,-95.59 -1.678,-3.788 -6.11,-5.499 -9.896,-3.82 z"
       id="path3880"
       inkscape:connector-curvature="0" />
    <path
       d="m 495.921,124.934 c -1.614,-3.816 -6.015,-5.599 -9.829,-3.986 -3.814,1.614 -5.6,6.015 -3.985,9.83 9.883,23.365 14.894,48.19 14.894,73.783 0,104.524 -85.039,189.56 -189.566,189.56 -104.527,0 -189.567,-85.036 -189.567,-189.56 C 117.866,100.037 202.906,15 307.434,15 c 64.862,0 124.538,32.628 159.633,87.28 2.238,3.485 6.876,4.496 10.363,2.258 3.485,-2.238 4.496,-6.878 2.258,-10.364 C 441.82,35.206 377.427,0 307.434,0 194.635,0 102.866,91.766 102.866,204.561 c 0,53.714 20.811,102.659 54.793,139.196 l -14.811,14.811 -33.571,-2.306 c -2.177,-0.149 -4.331,0.664 -5.867,2.23 L 92.374,369.74 c -2.901,2.957 -2.855,7.705 0.101,10.606 2.957,2.902 7.705,2.857 10.606,-0.101 l 8.616,-8.782 26.91,1.848 1.486,27.494 -39.069,39.011 -28.784,-28.783 6.144,-6.144 c 2.93,-2.929 2.93,-7.678 0.001,-10.607 -2.929,-2.928 -7.678,-2.929 -10.606,0 L 10.348,451.71 C 3.675,458.382 0,467.253 0,476.689 c 0,9.436 3.675,18.308 10.348,24.98 6.887,6.888 15.933,10.331 24.98,10.331 9.045,0 18.091,-3.443 24.975,-10.327 l 92.76,-92.62 c 1.509,-1.506 2.306,-3.584 2.19,-5.713 l -1.845,-34.12 14.859,-14.859 c 36.535,33.962 85.467,54.76 139.166,54.76 C 420.231,409.122 512,317.356 512,204.561 c 0,-27.612 -5.41,-54.402 -16.079,-79.627 z M 90.41,450.414 79.635,461.173 50.866,432.405 61.634,421.638 Z m -40.709,40.648 c -7.926,7.925 -20.822,7.925 -28.748,0 C 17.114,487.223 15,482.119 15,476.689 c 0,-5.429 2.114,-10.534 5.953,-14.372 l 19.306,-19.305 28.761,28.76 z"
       id="path3882"
       inkscape:connector-curvature="0" />
    <path
       d="m 255.667,197.112 h -15.789 c -3.213,-10.562 -13.044,-18.269 -24.642,-18.269 -14.199,0 -25.752,11.553 -25.752,25.752 0,14.199 11.553,25.752 25.752,25.752 11.585,0 21.407,-7.691 24.632,-18.235 h 15.809 c 1.277,8.814 4.76,16.923 9.869,23.748 l -11.898,11.899 c -3.684,-1.969 -7.819,-3.014 -12.115,-3.014 -6.879,0 -13.346,2.679 -18.208,7.543 -4.864,4.864 -7.543,11.331 -7.543,18.21 0,6.879 2.679,13.346 7.542,18.21 4.863,4.864 11.33,7.543 18.209,7.543 6.879,0 13.346,-2.679 18.209,-7.542 10e-4,0 10e-4,0 10e-4,-10e-4 8.198,-8.2 9.701,-20.599 4.509,-30.338 l 11.901,-11.902 c 6.833,5.116 14.954,8.601 23.781,9.875 v 16.816 c -10.553,3.219 -18.252,13.046 -18.252,24.638 0,14.2 11.553,25.752 25.752,25.752 14.199,0 25.751,-11.553 25.751,-25.752 0,-11.592 -7.698,-21.419 -18.251,-24.638 v -16.816 c 8.818,-1.272 16.932,-4.752 23.761,-9.86 l 10.989,10.989 c -3.229,5.424 -4.953,11.637 -4.953,18.115 0,9.483 3.693,18.399 10.398,25.104 h 10e-4 c 6.921,6.921 16.012,10.382 25.103,10.382 9.092,0 18.183,-3.461 25.104,-10.382 6.705,-6.706 10.398,-15.621 10.398,-25.104 0,-9.484 -3.693,-18.399 -10.398,-25.104 -12.345,-12.346 -31.595,-13.681 -45.434,-4.005 l -10.597,-10.597 c 5.117,-6.829 8.605,-14.945 9.884,-23.767 h 15.809 c 3.224,10.544 13.046,18.235 24.632,18.235 14.199,0 25.752,-11.553 25.752,-25.752 0,-14.199 -11.553,-25.752 -25.752,-25.752 -11.598,0 -21.428,7.707 -24.642,18.269 H 359.2 c -1.269,-8.84 -4.757,-16.973 -9.879,-23.815 l 11.885,-11.885 c 3.776,2.013 7.953,3.021 12.129,3.021 6.594,0 13.188,-2.51 18.208,-7.53 h 10e-4 c 4.863,-4.864 7.542,-11.331 7.542,-18.21 0,-6.879 -2.679,-13.346 -7.542,-18.21 -10.041,-10.04 -26.377,-10.041 -36.418,0 -4.864,4.864 -7.543,11.331 -7.543,18.21 0,4.295 1.045,8.43 3.014,12.115 l -11.883,11.883 c -6.833,-5.116 -14.954,-8.601 -23.78,-9.875 v -16.783 c 10.552,-3.219 18.251,-13.046 18.251,-24.638 0,-14.2 -11.552,-25.752 -25.751,-25.752 -14.199,0 -25.752,11.553 -25.752,25.752 0,11.592 7.699,21.419 18.252,24.638 v 16.783 c -8.835,1.274 -16.963,4.765 -23.8,9.889 l -10.808,-10.808 c 8.87,-13.746 7.293,-32.325 -4.732,-44.352 -6.706,-6.706 -15.621,-10.399 -25.104,-10.399 -9.483,0 -18.398,3.693 -25.104,10.399 -13.842,13.843 -13.842,36.366 0,50.209 6.705,6.705 15.62,10.398 25.104,10.398 6.927,0 13.55,-1.971 19.231,-5.646 l 10.811,10.811 c -5.115,6.835 -8.598,14.961 -9.865,23.793 z m -40.432,18.235 c -5.929,0 -10.752,-4.823 -10.752,-10.752 0,-5.929 4.823,-10.752 10.752,-10.752 5.928,0 10.751,4.823 10.751,10.752 0,5.929 -4.823,10.752 -10.751,10.752 z m 33.901,62.754 c -2.031,2.031 -4.731,3.15 -7.604,3.15 -2.873,0 -5.571,-1.118 -7.602,-3.149 -2.031,-2.031 -3.149,-4.731 -3.149,-7.603 0,-2.872 1.118,-5.572 3.149,-7.603 2.03,-2.03 4.729,-3.149 7.602,-3.149 2.873,0 5.572,1.119 7.603,3.15 4.191,4.19 4.191,11.011 0.001,15.204 z m 69.049,19.695 c 0,5.928 -4.823,10.752 -10.751,10.752 -5.929,0 -10.752,-4.823 -10.752,-10.752 0,-5.929 4.823,-10.752 10.752,-10.752 5.927,0 10.751,4.824 10.751,10.752 z m 76.545,-36.708 c 3.872,3.872 6.005,9.021 6.005,14.498 0,5.476 -2.133,10.625 -6.005,14.498 -7.993,7.993 -21,7.994 -28.995,0 h 10e-4 c -3.873,-3.873 -6.006,-9.021 -6.006,-14.498 0,-5.477 2.133,-10.625 6.006,-14.498 7.993,-7.994 21.001,-7.993 28.994,0 z m 4.901,-67.244 c 5.929,0 10.752,4.823 10.752,10.752 0,5.929 -4.823,10.752 -10.752,10.752 -5.928,0 -10.751,-4.823 -10.751,-10.752 0,-5.929 4.823,-10.752 10.751,-10.752 z M 365.732,131.09 c 2.096,-2.096 4.849,-3.144 7.602,-3.144 2.754,0 5.507,1.048 7.604,3.145 2.03,2.03 3.148,4.73 3.148,7.602 0,2.872 -1.118,5.572 -3.148,7.602 -4.191,4.192 -11.012,4.193 -15.205,0 -2.031,-2.031 -3.149,-4.731 -3.149,-7.603 -10e-4,-2.872 1.117,-5.572 3.148,-7.602 z m -69.05,-19.696 c 0,-5.928 4.823,-10.752 10.752,-10.752 5.928,0 10.751,4.823 10.751,10.752 0,5.928 -4.823,10.752 -10.751,10.752 -5.929,0 -10.752,-4.823 -10.752,-10.752 z m 10.752,55.885 c 20.566,0 37.298,16.732 37.298,37.3 0,20.567 -16.731,37.299 -37.298,37.299 -20.567,0 -37.299,-16.732 -37.299,-37.299 0,-20.567 16.732,-37.3 37.299,-37.3 z m -86.441,-20.133 c -7.994,-7.994 -7.994,-21.001 0,-28.995 3.872,-3.873 9.02,-6.005 14.496,-6.005 5.476,0 10.625,2.133 14.497,6.005 7.993,7.994 7.993,21.001 0.001,28.995 -3.873,3.872 -9.021,6.005 -14.498,6.005 -5.477,0 -10.624,-2.133 -14.496,-6.005 z"
       id="path3884"
       inkscape:connector-curvature="0" />
    <path
       d="m 290.26,194.187 c 0.18,0.45 0.42,0.89 0.69,1.29 0.27,0.41 0.58,0.8 0.93,1.14 1.4,1.4 3.33,2.2 5.3,2.2 1.98,0 3.91,-0.8 5.311,-2.2 1.39,-1.4 2.189,-3.33 2.189,-5.3 0,-1.98 -0.8,-3.91 -2.189,-5.31 -1.4,-1.39 -3.33,-2.19 -5.311,-2.19 -1.97,0 -3.899,0.8 -5.3,2.19 -0.35,0.35 -0.66,0.73 -0.93,1.14 -0.271,0.41 -0.511,0.85 -0.69,1.3 -0.19,0.45 -0.33,0.92 -0.43,1.4 -0.101,0.49 -0.15,0.98 -0.15,1.47 0,0.49 0.05,0.98 0.15,1.46 0.1,0.48 0.239,0.95 0.43,1.41 z"
       id="path3886"
       inkscape:connector-curvature="0" />
    <path
       d="m 301.439,211.697 c -0.479,0.1 -0.949,0.24 -1.399,0.43 -0.45,0.19 -0.891,0.42 -1.3,0.69 -0.41,0.27 -0.79,0.58 -1.141,0.93 -0.34,0.35 -0.66,0.73 -0.93,1.14 -0.271,0.41 -0.5,0.84 -0.69,1.29 -0.189,0.46 -0.33,0.93 -0.43,1.41 -0.09,0.48 -0.14,0.97 -0.14,1.46 0,1.98 0.8,3.91 2.189,5.31 0.351,0.34 0.73,0.66 1.141,0.93 0.409,0.27 0.85,0.5 1.3,0.69 0.45,0.19 0.92,0.33 1.399,0.43 0.49,0.09 0.98,0.14 1.471,0.14 0.489,0 0.979,-0.05 1.46,-0.14 0.479,-0.1 0.949,-0.24 1.41,-0.43 0.449,-0.19 0.88,-0.42 1.289,-0.69 0.41,-0.27 0.801,-0.59 1.141,-0.93 1.399,-1.4 2.2,-3.33 2.2,-5.31 0,-0.49 -0.051,-0.98 -0.15,-1.46 -0.099,-0.48 -0.24,-0.95 -0.43,-1.41 -0.181,-0.45 -0.42,-0.88 -0.69,-1.29 -0.27,-0.41 -0.58,-0.79 -0.93,-1.14 -0.34,-0.35 -0.73,-0.66 -1.141,-0.93 -0.409,-0.27 -0.84,-0.5 -1.289,-0.69 -0.461,-0.19 -0.931,-0.33 -1.41,-0.43 -0.959,-0.2 -1.959,-0.19 -2.93,0 z"
       id="path3888"
       inkscape:connector-curvature="0" />
    <path
       d="m 316.399,205.877 c 0.181,0.46 0.42,0.89 0.69,1.3 0.27,0.41 0.58,0.79 0.93,1.14 1.4,1.39 3.33,2.2 5.3,2.2 0.49,0 0.98,-0.05 1.471,-0.15 0.479,-0.1 0.95,-0.24 1.399,-0.43 0.45,-0.19 0.891,-0.42 1.29,-0.69 0.42,-0.27 0.801,-0.59 1.141,-0.93 0.35,-0.35 0.66,-0.73 0.939,-1.14 0.271,-0.41 0.5,-0.84 0.69,-1.3 0.189,-0.45 0.33,-0.92 0.43,-1.4 0.09,-0.48 0.14,-0.98 0.14,-1.47 0,-0.48 -0.05,-0.98 -0.14,-1.46 -0.1,-0.48 -0.24,-0.95 -0.43,-1.4 -0.19,-0.46 -0.42,-0.89 -0.69,-1.3 -0.279,-0.41 -0.59,-0.79 -0.939,-1.14 -0.34,-0.34 -0.721,-0.66 -1.141,-0.93 -0.399,-0.27 -0.84,-0.5 -1.29,-0.69 -0.449,-0.19 -0.92,-0.33 -1.399,-0.43 -0.971,-0.19 -1.971,-0.19 -2.931,0 -0.479,0.1 -0.949,0.24 -1.409,0.43 -0.45,0.19 -0.891,0.42 -1.29,0.69 -0.41,0.27 -0.801,0.59 -1.141,0.93 -0.35,0.35 -0.66,0.73 -0.93,1.14 -0.271,0.41 -0.51,0.84 -0.69,1.3 -0.189,0.45 -0.34,0.92 -0.43,1.4 -0.1,0.48 -0.15,0.98 -0.15,1.46 0,0.49 0.051,0.99 0.15,1.47 0.091,0.48 0.241,0.95 0.43,1.4 z"
       id="path3890"
       inkscape:connector-curvature="0" />
  </g>
</svg>
