<svg id="Layer_1" enable-background="new 0 0 511.744 511.744" height="512" viewBox="0 0 511.744 511.744" width="512" xmlns="http://www.w3.org/2000/svg"><g><g><g><path d="m286.736 179.42c-7.392 0-54.406 0-61.798 0-31.533 0-57.095 25.566-57.095 57.104s25.562 57.104 57.095 57.104h61.798c31.533 0 57.095-25.566 57.095-57.104s-25.562-57.104-57.095-57.104z" fill="#0094e6"/><path d="m286.736 179.42c-3.615 0-16.703 0-30 0 31.533 0 57.095 25.566 57.095 57.104s-25.562 57.104-57.095 57.104h30c31.533 0 57.095-25.566 57.095-57.104 0-31.537-25.562-57.104-57.095-57.104z" fill="#0085cf"/><path d="m143.812 131.979c0 61.858 50.176 112.005 112.025 112.005 61.849 0 111.988-50.146 111.988-112.005v-12.422c0-61.904-50.147-112.087-112.006-112.087-61.859 0-112.006 50.183-112.006 112.087v12.422z" fill="#0094e6"/><path d="m255.818 7.471c-5.087 0-10.093.346-15 1.003 54.766 7.336 97.007 54.27 97.007 111.083v12.422c0 56.771-42.232 103.67-96.988 111.002 4.908.657 9.913 1.003 15 1.003 61.849 0 111.988-50.146 111.988-112.005v-12.422c0-61.903-50.147-112.086-112.007-112.086z" fill="#0085cf"/><g><g><g><g><g><g><g><g><g><g><path d="m289.817 299.644v-81.231h-67.692v81.231c0 8.021-5.452 15.016-13.229 16.973v49.845l41.345 115.14h11.462l41.345-115.14-.012-49.848c-7.774-1.962-13.219-8.954-13.219-16.97z" fill="#ffe5d9"/></g></g></g></g></g><path d="m303.034 316.614c-7.772-1.962-13.217-8.953-13.217-16.97v-81.231h-30v81.231c0 2.338.463 4.589 1.312 6.653 7.366 17.908 11.911 36.848 11.916 56.212l.001 3.952-32.076 89.327 9.269 25.813h11.462l41.345-115.14z" fill="#ffdac9"/><g><path d="m286.533 40.477c-.014.086-.032.171-.046.257h.061c-.004-.086-.012-.171-.015-.257z" fill="none"/><path d="m256.002 62.172s-11.833 77.601-77.704 77.601l-.066 32.672c0 42.933 34.787 77.737 77.699 77.737h.08c42.912 0 77.699-34.804 77.699-77.737v-32.511c-69.541-14.296-77.708-77.762-77.708-77.762z" fill="#ffeee6"/><path d="m256.002 62.172s-2.931 19.202-13.982 38.503c11.256 16.196 30.168 32.779 61.689 39.26v32.511c0 37.811-26.987 69.303-62.739 76.282 4.843.945 9.841 1.455 14.96 1.455h.08c42.912 0 77.699-34.804 77.699-77.737v-32.511c-69.54-14.297-77.707-77.763-77.707-77.763z" fill="#ffe5d9"/></g></g></g><path d="m411.718 504.256v-101.886c0-18.944-10.527-36.321-27.322-45.102l-17.164-8.973-64.456-31.678-46.941 131.862-46.941-131.862-64.456 31.678-17.164 8.973c-16.795 8.781-27.322 26.158-27.322 45.102v101.886" fill="#cff5ff"/><g><path d="m384.396 357.268-17.164-8.973-64.456-31.678-5.956 16.732 30.412 14.947 17.164 8.973c16.795 8.781 27.322 26.157 27.322 45.102v101.885h40v-101.886c0-18.944-10.527-36.321-27.322-45.102z" fill="#b8f0ff"/></g></g></g><path d="m256.042 448.479v55.497" fill="none"/><path d="m145.842 504.471v-56.813h72.23v56.813" fill="#88e0f7"/></g><path d="m220.95 348.457h69.772l-34.886 100.022z" fill="#0094e6"/></g><path d="m264.446 250.182h-17.221c-20.144 0-36.473-16.33-36.473-36.473v-30.814h90.168v30.814c0 20.144-16.33 36.473-36.474 36.473z" fill="#cff5ff"/><path d="m270.92 182.895v30.814c0 17.963-12.989 32.882-30.084 35.904 2.076.367 4.208.569 6.389.569h17.221c20.144 0 36.473-16.33 36.473-36.474v-30.814h-29.999z" fill="#b8f0ff"/></g><g fill="#060606"><path d="m375.324 119.011c-.201-28.219-10.283-55.505-28.387-76.833-18.034-21.246-42.995-35.591-70.286-40.394-31.106-5.475-63.867 1.782-89.672 20.009-7.921 5.593.735 17.85 8.653 12.252 22.553-15.927 51.239-22.271 78.419-17.488 23.852 4.198 45.675 16.744 61.45 35.328 21.924 25.827 28.193 60.551 23.971 93.513-2.408 18.797-10.026 36.77-21.872 51.565 2.337-7.769 3.609-15.995 3.609-24.516v-32.511c0-3.56-2.502-6.629-5.99-7.346-26.492-5.447-46.583-18.999-59.717-40.278-9.879-16.006-12.009-30.722-12.063-31.109-1.074-8.221-13.565-8.597-14.851-.159-.028.18-2.866 18.213-13.233 36.183-13.417 23.256-32.613 35.048-57.057 35.048-4.136 0-7.492 3.349-7.5 7.485l-.067 32.688c0 8.751 1.329 17.197 3.789 25.15-14.617-18.193-22.964-41.179-23.205-64.651-.443-22.729 2.04-44.447 13.333-64.554 4.749-8.455-8.33-15.801-13.078-7.346-12.57 22.38-15.754 46.77-15.254 72.054.291 28.374 10.94 56.137 29.477 77.45-3.609 8.189-5.452 16.909-5.452 25.976 0 16.308 6.093 31.879 17.156 43.847 9.87 10.677 22.901 17.628 37.099 19.916-.349 5.465-4.833 7.568-8.988 9.588-26.107 12.378-52.553 25.601-78.128 38.389-.059.029-.117.06-.175.09-19.51 10.405-31.873 26.349-33.919 43.741-.01.09-.02.18-.027.271-1.85 22.82-1.451 45.869-1.064 68.159.247 14.281.503 29.049.16 43.554-.222 9.414 14.762 10.237 14.996.354.351-14.813.092-29.736-.158-44.169-.379-21.88-.771-44.502 1.006-66.543.896-7.335 5.481-21.123 25.98-32.086 23.058-11.529 46.823-23.411 70.353-34.679 5.579 15.61 34.541 97.923 43.909 123.417v53.603c0 9.697 15 9.697 15 0v-54.819s41.475-116.613 43.501-122.244c4.25 2.07 25.391 12.911 32.348 16.051 8.838 3.993 15.009-9.683 6.171-13.672-13.144-5.933-40.693-19.951-40.693-19.951-4.284-1.996-7.268-4.765-7.527-9.095 30.935-5.116 53.989-32.104 53.989-63.723 0-9.089-1.859-17.834-5.489-26.047 22.866-26.055 30.023-57.602 29.483-91.468zm-142.807 119.646c-17.381-10.287-14.265-31.11-14.265-48.261h75.168c0 17.293 3.132 38.293-14.618 48.465-14.844 5.117-31.489 5.052-46.285-.204zm75.903-24.948v-27.806l17.79-18.608v5.15c0 18.107-6.891 34.627-18.188 47.093.254-1.909.398-3.852.398-5.829zm-60.072-108.988c3.283-5.69 5.896-11.363 7.962-16.606 1.659 3.654 3.657 7.522 6.06 11.474 9.985 16.421 29.008 37.304 63.604 46.247l-28.26 29.559h-83.757l-27.278-28.532c25.94-2.532 47.145-16.966 61.669-42.142zm-62.606 62.867 17.51 18.315v27.806c0 1.863.13 3.695.356 5.497-11.108-12.425-17.876-28.808-17.876-46.745zm28.882 117.447c-22.462-4.797-39.282-25.011-39.282-48.51 0-4.938.711-9.739 2.107-14.354 7.779 6.75 16.444 12.518 25.662 17.069 3.614 2.865 7.459 5.448 11.513 7.706zm41.2 140.636-24.315-69.714h48.654s-23.217 66.509-24.339 69.714zm31.031-86.964c-.269.747-.541 1.501-.81 2.25h-60.516c-2.398-6.777-4.814-13.581-7.243-20.371 6.929-4.515 11.339-12.3 11.339-20.942v-45.649c13.683 6.002 38.955 6.015 52.692-.122v45.771c0 8.546 4.316 16.254 11.114 20.791-2.193 6.096-4.386 12.191-6.576 18.272zm10.462-53.717v-38.03c4.276-2.382 8.325-5.121 12.11-8.178 8.887-4.503 17.223-10.142 24.765-16.704 1.415 4.645 2.14 9.477 2.14 14.447-.001 23.445-16.501 43.575-39.015 48.465z"/><path d="m287.033 40.463-.523-.034-.023-.195v.194l-.448-.029-.077.835h1.106z"/><path d="m419.333 398.757c-.002-.084-.006-.169-.012-.253-1.092-17.478-11.494-34.87-27.146-45.39-8.048-5.408-16.416 7.04-8.367 12.449 11.647 7.828 19.696 21.067 20.535 33.756.684 24.069.413 48.66.15 72.443-.117 10.625-.239 21.612-.275 32.469-.031 9.414 14.967 9.937 15 .05.036-10.799.157-21.756.274-32.354.265-23.973.538-48.762-.159-73.17z"/><path d="m218.072 440.158h-72.229c-4.142 0-7.5 3.358-7.5 7.5v56.813c0 9.697 15 9.697 15 0v-49.313h57.229v49.313c0 9.697 15 9.697 15 0v-56.813c0-4.142-3.358-7.5-7.5-7.5z"/></g></g></svg>