<svg id="Layer_1" enable-background="new 0 0 512 512" height="512" viewBox="0 0 512 512" width="512" xmlns="http://www.w3.org/2000/svg"><g><g><g><path d="m478.702 504.5h-445.404c-14.248 0-25.798-11.55-25.798-25.798v-445.404c0-14.248 11.55-25.798 25.798-25.798h445.405c14.248 0 25.798 11.55 25.798 25.798v445.405c-.001 14.247-11.551 25.797-25.799 25.797z" fill="#fff6db"/><path d="m478.702 7.5h-30c14.248 0 25.798 11.55 25.798 25.798v445.405c0 14.248-11.55 25.798-25.798 25.798h30c14.248 0 25.798-11.55 25.798-25.798v-445.405c0-14.248-11.55-25.798-25.798-25.798z" fill="#ffeebd"/><path d="m119.262-22.451h187.595v329.308h-187.595z" fill="#36b8ff" transform="matrix(0 1 -1 0 355.262 -70.857)"/><path d="m337.713 48.405h40v187.595h-40z" fill="#0aa5fa"/><g><circle cx="432.404" cy="440.298" fill="#81f0af" r="31.19"/><g fill="#0094e6"><path d="m356.528 454.615h-21.132c-7.904 0-14.312-6.408-14.312-14.312v-.01c0-7.904 6.408-14.312 14.312-14.312h21.132c7.904 0 14.312 6.408 14.312 14.312v.01c0 7.904-6.408 14.312-14.312 14.312z"/><path d="m282.672 454.615h-21.132c-7.904 0-14.312-6.408-14.312-14.312v-.01c0-7.904 6.408-14.312 14.312-14.312h21.132c7.904 0 14.312 6.408 14.312 14.312v.01c0 7.904-6.407 14.312-14.312 14.312z"/><path d="m208.817 454.615h-21.132c-7.904 0-14.312-6.408-14.312-14.312v-.01c0-7.904 6.408-14.312 14.312-14.312h21.132c7.904 0 14.312 6.408 14.312 14.312v.01c-.001 7.904-6.408 14.312-14.312 14.312z"/></g></g></g><path d="m371.595 48.405h92v182.128h-92z" fill="#cff5ff"/><path d="m433.595 48.405h30v182.128h-30z" fill="#b8f0ff"/><g><path d="m48.68 229.765h414.641v48.775h-414.641z" fill="#ffe354"/><path d="m433.32 229.765h30v48.775h-30z" fill="#f7d731"/><path d="m48.68 278.618h414.641v48.775h-414.641z" fill="#81f0af"/><path d="m433.32 278.618h30v48.775h-30z" fill="#4fe88f"/><path d="m48.68 327.654h414.641v48.775h-414.641z" fill="#36b8ff"/><path d="m433.32 327.654h30v48.775h-30z" fill="#0aa5fa"/></g></g><g fill="#060606"><path d="m478.702 0h-445.405c-18.36 0-33.297 14.937-33.297 33.297v445.405c0 18.361 14.937 33.298 33.297 33.298h445.405c18.36 0 33.298-14.937 33.298-33.297v-445.406c0-18.36-14.937-33.297-33.298-33.297zm18.298 478.703c0 10.089-8.208 18.297-18.298 18.297h-445.405c-10.089 0-18.297-8.208-18.297-18.297v-445.406c0-10.089 8.208-18.297 18.297-18.297h445.405c10.09 0 18.298 8.208 18.298 18.297z"/><path d="m463.595 40.905h-415.19c-4.142 0-7.5 3.358-7.5 7.5v29.311c0 9.697 15 9.697 15 0v-21.811h308.189v93.525h-42.338c-2.881 0-5.507 1.65-6.757 4.246l-7.147 14.839-21.021-67.843c-2.044-6.594-11.518-6.997-14.113-.601l-20.101 49.525h-32.411l-11.473-22.506c-2.83-5.551-11.102-5.285-13.569.437l-10.505 24.364-16.479-61.196c-1.908-7.085-12.414-7.259-14.455-.107l-22.445 78.67-17.636-54.078c-2.035-6.241-10.877-6.91-13.829-1.048l-16.374 32.511h-27.536v-29.04c0-9.697-15-9.697-15 0v259.487c0 4.142 3.358 7.5 7.5 7.5h415.189c4.143 0 7.5-3.358 7.5-7.5v-328.685c.001-4.142-3.357-7.5-7.499-7.5zm-407.69 196.361h400.189v33.853h-400.189zm400.19-181.361v166.36h-77v-166.36zm-368.033 105.737c2.833 0 5.424-1.596 6.698-4.126l10.266-20.383 19.603 60.108c2.215 6.794 12.356 6.694 14.343-.268l21.758-76.26 15.047 55.876c1.81 6.719 11.374 7.409 14.129 1.02l12.713-29.486 6.31 12.379c1.281 2.512 3.862 4.094 6.682 4.094h42.056c3.053 0 5.802-1.851 6.949-4.68l14.103-34.745 20.45 66.001c1.975 6.377 11.025 7.05 13.921 1.035l13.379-27.777h37.626v57.835h-308.19v-60.624h32.157zm-32.157 207.948v-34.415c49.216.157 251.425.152 302.626-.021 9.472-.032 9.214-15-.051-15-99.99.338-201.743.344-302.575.021v-34.057h400.189v34.143c-17.613.232-34.443.198-52.395-.107-9.441-.107-9.679 14.838-.254 14.998 10.261.174 52.648.11 52.648.11v34.327h-400.188z"/><path d="m432.404 401.607c-21.334 0-38.69 17.356-38.69 38.69s17.356 38.69 38.69 38.69 38.69-17.356 38.69-38.69-17.356-38.69-38.69-38.69zm0 62.381c-13.063 0-23.69-10.627-23.69-23.69s10.628-23.69 23.69-23.69 23.69 10.627 23.69 23.69-10.627 23.69-23.69 23.69z"/><path d="m356.528 418.481h-21.132c-12.027 0-21.812 9.785-21.812 21.822 0 12.027 9.784 21.812 21.812 21.812h21.132c12.027 0 21.812-9.785 21.812-21.822 0-12.027-9.784-21.812-21.812-21.812zm0 28.634h-21.132c-3.756 0-6.812-3.056-6.812-6.822 0-3.756 3.056-6.812 6.812-6.812h21.132c3.756 0 6.812 3.056 6.812 6.822 0 3.756-3.056 6.812-6.812 6.812z"/><path d="m282.673 418.481h-21.132c-12.027 0-21.813 9.785-21.813 21.822 0 12.027 9.785 21.812 21.813 21.812h21.132c12.027 0 21.812-9.785 21.812-21.822-.001-12.027-9.785-21.812-21.812-21.812zm0 28.634h-21.132c-3.757 0-6.813-3.056-6.813-6.822 0-3.756 3.056-6.812 6.813-6.812h21.132c3.756 0 6.812 3.056 6.812 6.822-.001 3.756-3.056 6.812-6.812 6.812z"/><path d="m208.816 418.481h-21.132c-12.027 0-21.812 9.785-21.812 21.822 0 12.027 9.785 21.812 21.812 21.812h21.132c12.027 0 21.812-9.785 21.812-21.822 0-12.027-9.784-21.812-21.812-21.812zm0 28.634h-21.132c-3.756 0-6.812-3.056-6.812-6.822 0-3.756 3.056-6.812 6.812-6.812h21.132c3.756 0 6.812 3.056 6.812 6.822 0 3.756-3.055 6.812-6.812 6.812z"/></g></g></svg>